<mxfile host="app.diagrams.net" modified="2023-06-19T12:16:43.443Z" agent="Mozilla/5.0 (Macintosh; Intel Mac OS X 10_15_7) AppleWebKit/537.36 (KHTML, like Gecko) Chrome/114.0.0.0 Safari/537.36" version="21.3.8" etag="V3KHTERdl0HaO6Ph-PBA" type="github">
  <diagram name="Page-1" id="AjozA_RbJ2yxUwryUioa">
    <mxGraphModel>
      <root>
        <mxCell id="0" />
        <mxCell id="1" parent="0" />
      </root>
    </mxGraphModel>
  </diagram>
</mxfile>
